<svg width="135" height="36" viewBox="0 0 135 36" fill="none" xmlns="http://www.w3.org/2000/svg">
<path d="M17.5103 13.4463C17.0622 12.6227 16.4137 11.999 15.5647 11.5754C14.7393 11.1283 13.7606 10.9047 12.6287 10.9047C10.6713 10.9047 9.10301 11.5519 7.92386 12.8462C6.74471 14.117 6.15514 15.8232 6.15514 17.9647C6.15514 20.2474 6.7683 22.0359 7.99461 23.3303C9.2445 24.6011 10.9543 25.2365 13.1239 25.2365C14.6096 25.2365 15.8595 24.8599 16.8736 24.1069C17.9112 23.3538 18.6659 22.2713 19.1375 20.8593H11.4613V16.4115H24.6206V22.0242C24.1725 23.5303 23.406 24.9305 22.3212 26.2249C21.26 27.5192 19.904 28.5664 18.2532 29.3665C16.6024 30.1667 14.7393 30.5667 12.664 30.5667C10.2114 30.5667 8.01819 30.0372 6.08439 28.9782C4.17418 27.8957 2.67666 26.4014 1.59185 24.4952C0.530616 22.589 0 20.4122 0 17.9647C0 15.5172 0.530616 13.3404 1.59185 11.4342C2.67666 9.50451 4.17418 8.01016 6.08439 6.95116C7.99461 5.86863 10.176 5.32737 12.6287 5.32737C15.6001 5.32737 18.0999 6.04513 20.128 7.48066C22.1797 8.91618 23.5357 10.9047 24.1961 13.4463H17.5103Z" fill="white"/>
<path d="M46.5781 20.2239C46.5781 20.7887 46.5427 21.377 46.472 21.9889H32.7821C32.8764 23.2126 33.2655 24.1539 33.9494 24.8129C34.6569 25.4483 35.5177 25.766 36.5318 25.766C38.0411 25.766 39.0905 25.1306 39.6801 23.8598H46.1182C45.7881 25.1541 45.1867 26.319 44.3141 27.3545C43.4652 28.3899 42.3921 29.2018 41.0951 29.7901C39.798 30.3785 38.3477 30.6726 36.744 30.6726C34.8102 30.6726 33.0887 30.2608 31.5794 29.4371C30.0701 28.6135 28.8909 27.4368 28.0419 25.9072C27.1929 24.3775 26.7684 22.589 26.7684 20.5416C26.7684 18.4942 27.1811 16.7057 28.0066 15.176C28.8555 13.6464 30.0347 12.4697 31.544 11.646C33.0533 10.8224 34.7866 10.4105 36.744 10.4105C38.6542 10.4105 40.3522 10.8106 41.8379 11.6107C43.3237 12.4109 44.4792 13.5522 45.3046 15.0348C46.1536 16.5174 46.5781 18.2471 46.5781 20.2239ZM40.3876 18.6354C40.3876 17.5999 40.0338 16.7763 39.3264 16.1644C38.6189 15.5525 37.7345 15.2466 36.6733 15.2466C35.6592 15.2466 34.7984 15.5408 34.0909 16.1291C33.407 16.7174 32.9825 17.5529 32.8175 18.6354H40.3876Z" fill="white"/>
<path d="M60.7707 25.2718V30.3902H57.6931C55.4999 30.3902 53.7901 29.8607 52.5638 28.8017C51.3375 27.7192 50.7244 25.966 50.7244 23.5421V15.7055H48.3189V10.6929H50.7244V5.89217H56.7734V10.6929H60.7353V15.7055H56.7734V23.6127C56.7734 24.201 56.9149 24.6246 57.1979 24.8835C57.4809 25.1423 57.9525 25.2718 58.6128 25.2718H60.7707Z" fill="white"/>
<path d="M73.1252 30.6726C71.1914 30.6726 69.4462 30.2608 67.8898 29.4371C66.3569 28.6135 65.1424 27.4368 64.2462 25.9072C63.3736 24.3775 62.9374 22.589 62.9374 20.5416C62.9374 18.5177 63.3854 16.741 64.2816 15.2113C65.1777 13.6581 66.404 12.4697 67.9605 11.646C69.517 10.8224 71.2621 10.4105 73.1959 10.4105C75.1297 10.4105 76.8749 10.8224 78.4313 11.646C79.9878 12.4697 81.2141 13.6581 82.1103 15.2113C83.0064 16.741 83.4545 18.5177 83.4545 20.5416C83.4545 22.5654 82.9946 24.354 82.0749 25.9072C81.1787 27.4368 79.9406 28.6135 78.3606 29.4371C76.8041 30.2608 75.059 30.6726 73.1252 30.6726ZM73.1252 25.4483C74.2807 25.4483 75.2594 25.0247 76.0612 24.1775C76.8867 23.3303 77.2994 22.1183 77.2994 20.5416C77.2994 18.9649 76.8984 17.7529 76.0966 16.9057C75.3184 16.0585 74.3515 15.6349 73.1959 15.6349C72.0168 15.6349 71.0381 16.0585 70.2599 16.9057C69.4816 17.7294 69.0925 18.9413 69.0925 20.5416C69.0925 22.1183 69.4698 23.3303 70.2245 24.1775C71.0027 25.0247 71.9696 25.4483 73.1252 25.4483Z" fill="white"/>
<path fill-rule="evenodd" clip-rule="evenodd" d="M133.989 0H92.0454C91.4872 0 91.0347 0.451551 91.0347 1.00857V29.7527C91.0347 30.3097 91.4872 30.7613 92.0454 30.7613H115.722C116.081 30.7613 116.413 30.9518 116.595 31.2616L119.072 35.4996C119.436 36.1229 120.32 36.1738 120.754 35.5965L124.084 31.1647C124.275 30.9107 124.575 30.7613 124.893 30.7613H133.989C134.548 30.7613 135 30.3097 135 29.7527V1.00857C135 0.45155 134.548 0 133.989 0ZM111.869 15.3806C111.869 20.3938 109.298 24.4577 106.126 24.4577C102.955 24.4577 100.384 20.3938 100.384 15.3806C100.384 10.3675 102.955 6.30354 106.126 6.30354C109.298 6.30354 111.869 10.3675 111.869 15.3806ZM107.083 22.5667C108.669 22.5667 109.955 20.5347 109.955 18.0281C109.955 15.5215 108.669 13.4896 107.083 13.4896C105.498 13.4896 104.212 15.5215 104.212 18.0281C104.212 20.5347 105.498 22.5667 107.083 22.5667ZM119.908 24.4577C123.08 24.4577 125.651 20.3938 125.651 15.3806C125.651 10.3675 123.08 6.30354 119.908 6.30354C116.737 6.30354 114.166 10.3675 114.166 15.3806C114.166 20.3938 116.737 24.4577 119.908 24.4577ZM123.737 18.0281C123.737 20.5347 122.451 22.5667 120.866 22.5667C119.28 22.5667 117.994 20.5347 117.994 18.0281C117.994 15.5215 119.28 13.4896 120.866 13.4896C122.451 13.4896 123.737 15.5215 123.737 18.0281Z" fill="white"/>
</svg>
